# xmcd
#
# Track frame offsets:
#	150
#	18590
#	32510
#	39740
#	46932
#	54110
#	61312
#	75182
#	83102
#	92492
#	99792
#	113725
#	127675
#	130365
#	132957
#	146852
#	156265
#	165660
#	179647
#	188902
#	206967
#	220855
#
# Disc length: 3068 seconds
#
# Revision: 1
# Processed by: cddbd v1.5.1PL0 Copyright (c) Steve Scherf et al.
# Submitted via: CDex 1.50Beta5
#
DISCID=260bfa16
DTITLE=効果音 - 効果音大全集 20 [屋外ノイズ]
DYEAR=1900
DGENRE=Unclassifiable
TTITLE0=<工事現場>ビル工事の現場
TTITLE1=<工事現場>道路の人力工事
TTITLE2=<パワーマシン>ブルドーザー
TTITLE3=<パワーマシン>パワーショベル
TTITLE4=<パワーマシン>ロードローラー
TTITLE5=<パワーマシン>ピックハンマー(ハツリハンマー)
TTITLE6=<造船所>造船作業
TTITLE7=<競馬場>競走中
TTITLE8=<競輪場>場内ノイズ
TTITLE9=<競輪場>競走中
TTITLE10=<遊園地>全体の風景1
TTITLE11=<遊園地>全体の風景2
TTITLE12=<遊園地>コースター1
TTITLE13=<遊園地>コースター2
TTITLE14=<動物園>全体の風景
TTITLE15=<動物園>猿山
TTITLE16=<町なかの公園>子供の遊ぶ公園
TTITLE17=<駅前ターミナル>東京新宿駅前
TTITLE18=<昔の駅構内>夜間の貨車入れ換え
TTITLE19=<街ノイズ>都会の街頭風景
TTITLE20=<街ノイズ>歩行者天国
TTITLE21=<田舎の風景>農家近くの風景
EXTD=
EXTT0=
EXTT1=
EXTT2=
EXTT3=
EXTT4=
EXTT5=
EXTT6=
EXTT7=
EXTT8=
EXTT9=
EXTT10=
EXTT11=
EXTT12=
EXTT13=
EXTT14=
EXTT15=
EXTT16=
EXTT17=
EXTT18=
EXTT19=
EXTT20=
EXTT21=
PLAYORDER=
